<svg xmlns="http://www.w3.org/2000/svg" width="166" height="175" viewBox="0 0 166 175" fill="none"><metadata><rdf:RDF xmlns:rdf="http://www.w3.org/1999/02/22-rdf-syntax-ns#" xmlns:dc="http://purl.org/dc/elements/1.1/"><rdf:Description><dc:creator>RealFaviconGenerator</dc:creator><dc:source>https://realfavicongenerator.net</dc:source></rdf:Description></rdf:RDF></metadata><g filter="url(#filter0_i_23_60)">
<path d="M89.7535 47C89.7535 49.7614 91.992 52 94.7535 52H134.753C137.515 52 139.753 49.7614 139.753 47V5C139.753 2.23858 141.992 0 144.753 0H160.753C163.515 0.000181671 165.753 2.23869 165.753 5V125C165.753 127.761 163.515 130 160.753 130H144.753C141.992 130 139.753 127.761 139.753 125V77C139.753 74.2386 137.515 72 134.753 72H94.7535C91.992 72 89.7535 74.2386 89.7535 77V130C89.7535 154.853 69.6061 175 44.7535 175C21.5879 175 2.51079 157.496 0.0272111 134.992C-0.27571 132.247 1.99203 130 4.75345 130H20.7535C23.5149 130 25.6864 132.277 26.4031 134.944C28.5791 143.04 35.9703 149 44.7535 149C55.2467 149 63.7535 140.493 63.7535 130V77C63.7535 74.2386 61.5149 72 58.7535 72H40.7535C37.992 72 35.7535 69.7614 35.7535 67V57C35.7535 54.2386 37.992 52 40.7535 52H58.7535C61.5149 52 63.7535 49.7614 63.7535 47V5C63.7535 2.23858 65.992 0 68.7535 0H84.7535C87.5149 0 89.7535 2.23858 89.7535 5V47Z" fill="white"></path>
</g><g filter="url(#filter1_i_23_60)">
<path d="M134.753 38C137.515 38 139.753 40.2386 139.753 43V47C139.753 49.7614 137.515 52 134.753 52H112.753C109.992 52 107.753 54.2386 107.753 57V67C107.753 69.7614 109.992 72 112.753 72H134.753C137.515 72 139.753 74.2386 139.753 77V81C139.753 83.7614 137.515 86 134.753 86H112.753C109.992 86 107.753 88.2386 107.753 91V110C107.753 112.761 105.515 115 102.753 115H94.7531C91.9917 115 89.7531 112.761 89.7531 110V43C89.7531 40.2386 91.9917 38 94.7531 38H134.753Z" fill="#FF0000"></path>
</g><defs>
<filter id="filter0_i_23_60" x="0" y="0" width="165.753" height="179" filterUnits="userSpaceOnUse" color-interpolation-filters="sRGB">
<feFlood flood-opacity="0" result="BackgroundImageFix"></feFlood>
<feBlend mode="normal" in="SourceGraphic" in2="BackgroundImageFix" result="shape"></feBlend>
<feColorMatrix in="SourceAlpha" type="matrix" values="0 0 0 0 0 0 0 0 0 0 0 0 0 0 0 0 0 0 127 0" result="hardAlpha"></feColorMatrix>
<feOffset dy="4"></feOffset>
<feGaussianBlur stdDeviation="2"></feGaussianBlur>
<feComposite in2="hardAlpha" operator="arithmetic" k2="-1" k3="1"></feComposite>
<feColorMatrix type="matrix" values="0 0 0 0 0 0 0 0 0 0 0 0 0 0 0 0 0 0 0.5 0"></feColorMatrix>
<feBlend mode="normal" in2="shape" result="effect1_innerShadow_23_60"></feBlend>
</filter>
<filter id="filter1_i_23_60" x="89.7531" y="38" width="50" height="81" filterUnits="userSpaceOnUse" color-interpolation-filters="sRGB">
<feFlood flood-opacity="0" result="BackgroundImageFix"></feFlood>
<feBlend mode="normal" in="SourceGraphic" in2="BackgroundImageFix" result="shape"></feBlend>
<feColorMatrix in="SourceAlpha" type="matrix" values="0 0 0 0 0 0 0 0 0 0 0 0 0 0 0 0 0 0 127 0" result="hardAlpha"></feColorMatrix>
<feOffset dy="4"></feOffset>
<feGaussianBlur stdDeviation="2"></feGaussianBlur>
<feComposite in2="hardAlpha" operator="arithmetic" k2="-1" k3="1"></feComposite>
<feColorMatrix type="matrix" values="0 0 0 0 0 0 0 0 0 0 0 0 0 0 0 0 0 0 0.5 0"></feColorMatrix>
<feBlend mode="normal" in2="shape" result="effect1_innerShadow_23_60"></feBlend>
</filter>
</defs></svg>